<?xml version="1.0" encoding="utf-8"?>
<!-- Generator: Adobe Illustrator 21.0.0, SVG Export Plug-In . SVG Version: 6.00 Build 0)  -->
<svg version="1.1" id="Layer_1" xmlns="http://www.w3.org/2000/svg" xmlns:xlink="http://www.w3.org/1999/xlink" x="0px" y="0px"
	 viewBox="0 0 141.6 128" style="enable-background:new 0 0 141.6 128;" xml:space="preserve">
<style type="text/css">
	.st0{fill:#000080;}
</style>
<g>
	<path class="st0" d="M122.3,98.5H26.9V46.8h95.4V98.5z M30.9,94.5h87.4V50.8H30.9V94.5z M106.4,90.5H42.8v-2c0-2.2-1.8-4-4-4h-2
		V60.7h2c1.2,0,4-0.4,4-4v-2h63.6v2c0,3.6,2.8,4,4,4h2v23.8h-2c-2.2,0-4,1.8-4,4V90.5z M46.5,86.6h56.1c0.7-2.8,2.9-5,5.7-5.7V64.5
		c-3-0.6-5.1-2.8-5.8-5.8h-56c-0.6,3-2.7,5.1-5.8,5.8v16.3C43.6,81.6,45.8,83.8,46.5,86.6z M74.6,82.6c-5.5,0-9.9-4.5-9.9-9.9
		c0-5.5,4.5-9.9,9.9-9.9c5.5,0,9.9,4.5,9.9,9.9C84.5,78.1,80.1,82.6,74.6,82.6z M74.6,66.7c-3.3,0-6,2.7-6,6c0,3.3,2.7,6,6,6
		c3.3,0,6-2.7,6-6C80.6,69.4,77.9,66.7,74.6,66.7z M96.5,74.7h-4v-4h4V74.7z M56.7,74.7h-4v-4h4V74.7z M114.3,42.9H34.9v-4h79.5
		V42.9z M106.4,34.9H42.8v-4h63.6V34.9z"/>
</g>
</svg>
