<?xml version="1.0" encoding="utf-8"?>
<!-- Generator: Adobe Illustrator 21.0.0, SVG Export Plug-In . SVG Version: 6.00 Build 0)  -->
<svg version="1.1" id="Layer_1" xmlns="http://www.w3.org/2000/svg" xmlns:xlink="http://www.w3.org/1999/xlink" x="0px" y="0px"
	 viewBox="0 0 141.6 128" style="enable-background:new 0 0 141.6 128;" xml:space="preserve">
<style type="text/css">
	.st0{fill:#000080;}
</style>
<g>
	<path class="st0" d="M118.8,116.5H20.5v-4.4h98.3V116.5z M81.7,109.9h-4.4V46.6c0-1.2,1-2.2,2.2-2.2H97c1.2,0,2.2,1,2.2,2.2v15.3
		h-4.4V48.8H81.7V109.9z M73,109.9h-4.4V22.6H55.5v87.4h-4.4V20.4c0-1.2,1-2.2,2.2-2.2h17.5c1.2,0,2.2,1,2.2,2.2V109.9z M46.8,109.9
		h-4.4V66.3H29.3v43.7h-4.4V64.1c0-1.2,1-2.2,2.2-2.2h17.5c1.2,0,2.2,1,2.2,2.2V109.9z"/>
	<g>
		<path class="st0" d="M113.9,110.3L111,107c4.9-4.2,7.8-10.3,7.8-16.7c0-12-9.8-21.8-21.8-21.8c-3.5,0-7.1,0.9-10.2,2.5l-2-3.9
			c3.7-2,8-3,12.2-3c14.5,0,26.2,11.8,26.2,26.2C123.2,98,119.8,105.3,113.9,110.3z M99.2,107.8h-4.4v-4.4c-3.5,0-6.6-3.1-6.6-6.6
			v-2.2h4.4v2.2c0,1,1,2.2,2.2,2.2h4.3c1.2,0,2.2-1.2,2.2-2.2v-0.7c0-0.7-0.6-1.4-1.4-1.6l-7.1-2.1c-2.7-0.8-4.6-3.2-4.6-5.8v-0.7
			c0-3.5,3.1-6.6,6.6-6.6h0V75h4.4v4.4c3.5,0,6.6,3.1,6.6,6.6v2.2h-4.4v-2.2c0-1-1-2.2-2.2-2.2h-4.4c-1.2,0-2.2,1.2-2.2,2.2v0.7
			c0,0.7,0.6,1.4,1.4,1.6l7.1,2.1c2.7,0.8,4.5,3.1,4.5,5.8v0.7c0,3.5-3.1,6.6-6.6,6.6V107.8z"/>
	</g>
</g>
</svg>
