<?xml version="1.0" encoding="utf-8"?>
<!-- Generator: Adobe Illustrator 21.0.0, SVG Export Plug-In . SVG Version: 6.00 Build 0)  -->
<svg version="1.1" id="Layer_1" xmlns="http://www.w3.org/2000/svg" xmlns:xlink="http://www.w3.org/1999/xlink" x="0px" y="0px"
	 viewBox="0 0 141.6 128" style="enable-background:new 0 0 141.6 128;" xml:space="preserve">
<style type="text/css">
	.st0{fill:#000080;}
</style>
<g>
	<path class="st0" d="M36,121.5h-4.5v-15.7h-9c-1.2,0-2.2-1-2.2-2.2V56.4c0-1.2,1-2.2,2.2-2.2h9V36.3H36v17.9h9c1.2,0,2.2,1,2.2,2.2
		v47.1c0,1.2-1,2.2-2.2,2.2h-9V121.5z M24.8,101.3h17.9V58.7H24.8V101.3z M110,114.7h-4.5V96.8h-9c-1.2,0-2.2-1-2.2-2.2V47.5
		c0-1.2,1-2.2,2.2-2.2h9V27.3h4.5v17.9h9c1.2,0,2.2,1,2.2,2.2v47.1c0,1.2-1,2.2-2.2,2.2h-9V114.7z M98.8,92.3h17.9V49.7H98.8V92.3z
		 M71.9,90.1h-4.5V74.4h-9c-1.2,0-2.2-1-2.2-2.2V29.5c0-1.2,1-2.2,2.2-2.2h9V13.9h4.5v13.5h9c1.2,0,2.2,1,2.2,2.2v42.6
		c0,1.2-1,2.2-2.2,2.2h-9V90.1z M60.7,69.9h17.9V31.8H60.7V69.9z"/>
</g>
</svg>
