<?xml version="1.0" encoding="utf-8"?>
<!-- Generator: Adobe Illustrator 21.0.0, SVG Export Plug-In . SVG Version: 6.00 Build 0)  -->
<svg version="1.1" id="Layer_1" xmlns="http://www.w3.org/2000/svg" xmlns:xlink="http://www.w3.org/1999/xlink" x="0px" y="0px"
	 viewBox="0 0 141.6 128" style="enable-background:new 0 0 141.6 128;" xml:space="preserve">
<style type="text/css">
	.st0{fill:#000080;}
</style>
<g>
	<g>
		<path class="st0" d="M105.2,101.8c-9.2,9.2-21.4,14.3-34.4,14.3h0c0,0,0,0,0,0c-6.3,0-12.5-1.2-18.3-3.6
			C27.6,102.4,15.5,74,25.6,49.1l0.1-0.2l2.8,7.8c0.1,0.4,0.4,0.7,0.7,0.9l7,4.7c0.3,0.2,0.6,0.3,1,0.3c0.3,0,0.6-0.1,0.8-0.2
			c0.6-0.3,0.9-0.9,0.9-1.6v-2.9c0-0.5-0.2-0.9-0.5-1.3l-2.8-2.8v-5l11.4-1.6c0.2,0,0.5-0.1,0.7-0.2l7.8-4.7
			c0.3-0.1,0.5-0.4,0.6-0.6l4.8-8l4.3-1.4c0.5-0.2,0.9-0.6,1.1-1.1l0.8-2.4c0.2-0.5,0.1-1-0.2-1.5c-0.3-0.4-0.7-0.8-1.2-0.8
			l-8.1-1.3L53,22c5.6-2.2,11.6-3.3,17.8-3.3h0c5,0,9.8,0.7,14.5,2.2c-0.2,0.6-0.3,1.4-0.5,2.7c-0.1,0.5-0.2,1-0.2,1.4h-4.2
			c-0.8,0-1.5,0.5-1.7,1.3l-2,7.6c-0.2,0.8,0.1,1.6,0.8,2l2.7,1.7c0.5,0.3,1.1,0.4,1.7,0.1l5.9-2.7l4.6,2.8c0.1,0.1,0.2,0.1,0.3,0.2
			l7.6,2.8c0.2,0.1,0.4,0.1,0.6,0.1c0.5,0,0.9-0.2,1.3-0.5l5.2-5.3c2.3,2.6,4.3,5.4,6,8.4l-10.4,3.7l-10-1.6l-2.9-4.3
			c-0.3-0.5-0.9-0.8-1.5-0.8h-8.5c-0.5,0-0.9,0.2-1.3,0.5l-4,4c-0.4,0.4-0.6,1-0.5,1.5l1.4,10c0.1,0.6,0.5,1.1,1.1,1.4L87,62.2
			c0.4,0.2,0.8,0.2,1.1,0.1l6.1-1.6l5,3.3v6.3c0,0.3,0.1,0.5,0.2,0.8l6.5,13.1v6c0,0.5,0.2,0.9,0.5,1.3l2.5,2.5l1.4,1.6
			C108.9,97.8,107.2,99.9,105.2,101.8 M49.3,23.6l6,4.5c0,0,0,0,0.1,0.1c0.4,0.3,0.9,0.5,1.3,0.5l5.3,0.9l-2.5,0.8
			c-0.8,0.3-1.4,0.8-1.9,1.5l-4.6,7.7L46,43.8l-11.1,1.6c-1.7,0.2-3,1.7-3,3.4v5.1c0,0.6,0.2,1.2,0.4,1.7L31.6,55l-3.8-10.7
			C32.7,35.2,40.3,28.1,49.3,23.6 M86.5,31.5L81.1,34l-0.8-0.5l1.3-5h4.3c0.8,0,1.5-0.6,1.7-1.4c0.2-0.8,0.4-1.9,0.6-3
			c0.1-0.4,0.2-0.9,0.2-1.4h2c5.2,2.3,10.1,5.6,14.3,9.7l-4.5,4.6l-6.4-2.4l-4.8-3C88.3,31.1,87.3,31.1,86.5,31.5 M112.5,92.6
			l-0.7-0.9c0,0-0.1-0.1-0.1-0.1l-2.1-2.1v-5.3c0-0.5-0.1-1.1-0.4-1.6l-6.4-12.7V64c0-1.2-0.6-2.2-1.5-2.9l-5-3.4
			c-0.8-0.5-1.8-0.7-2.8-0.5l-5.6,1.4L79,54.8l-1.2-8.1l2.8-2.8h6.8l2.3,3.5c0.5,0.8,1.4,1.3,2.3,1.5l10.1,1.7
			c0.6,0.1,1.1,0,1.7-0.1l11-3.9c3,6.4,4.6,13.5,4.6,20.8C119.5,76.4,117.1,85,112.5,92.6 M107.7,30.4c-9.9-9.9-23-15.3-37-15.3h0
			c-19.7,0-37.5,11-46.5,28.3c0,0,0,0,0,0c-0.6,1.1-1.1,2.2-1.6,3.3l-0.4,0.9c-10.8,26.7,2.1,57.2,28.8,68
			c6.3,2.5,12.9,3.8,19.6,3.8h0c14,0,27.1-5.4,37-15.3c9.9-9.9,15.3-23,15.3-37C123.1,53.4,117.6,40.3,107.7,30.4"/>
		<path class="st0" d="M65.9,80.8l-6,6c-0.6,0.6-1,1.5-1,2.4v3.3l-5.4,4c-0.9,0.7-1.4,1.7-1.4,2.8v1.4L50.7,97V80.8
			c0-1.6-1.2-3.1-2.8-3.4c0,0,0,0,0,0l-6.8-1.4l-2.2-4.5v-2.8l4-4l1.2,2.4c0.6,1.2,1.8,1.9,3.1,1.9h0H57l4,6.7c0.6,1,1.8,1.7,3,1.7
			h2.5L65.9,80.8z M68.7,74h-4.6l-4.5-7.6c-0.3-0.5-0.9-0.9-1.5-0.9H47.3L45,61c-0.3-0.5-0.7-0.9-1.3-1c-0.6-0.1-1.1,0.1-1.5,0.5
			l-6.3,6.3c-0.3,0.3-0.5,0.8-0.5,1.3v4c0,0.3,0.1,0.5,0.2,0.8l2.8,5.6c0.2,0.5,0.7,0.8,1.2,0.9l7.5,1.5v16.4c0,0.2,0,0.4,0.1,0.7
			l3,7.4c0.2,0.5,0.6,0.9,1.1,1l2.1,0.7c0.2,0.1,0.4,0.1,0.6,0.1c0.4,0,0.7-0.1,1-0.3c0.5-0.3,0.7-0.9,0.7-1.4l0-6l6.1-4.5
			c0.4-0.3,0.7-0.9,0.7-1.4l0-4.1l6.4-6.4c0.2-0.2,0.4-0.6,0.5-0.9l1.2-5.9c0.1-0.5,0-1.1-0.4-1.5C69.8,74.2,69.3,74,68.7,74"/>
	</g>
</g>
</svg>
