<?xml version="1.0" encoding="utf-8"?>
<!-- Generator: Adobe Illustrator 21.0.0, SVG Export Plug-In . SVG Version: 6.00 Build 0)  -->
<svg version="1.1" id="Layer_1" xmlns="http://www.w3.org/2000/svg" xmlns:xlink="http://www.w3.org/1999/xlink" x="0px" y="0px"
	 viewBox="0 0 141.6 128" style="enable-background:new 0 0 141.6 128;" xml:space="preserve">
<style type="text/css">
	.st0{fill:#000080;}
</style>
<g>
	<g>
		<path class="st0" d="M70.7,111.1C46.6,111.1,27,91.5,27,67.3c0-5.5,1.1-11,3.1-16.2L23,45.4l32.6-11l-3.1,34.8l-6.1-5
			c-1.1,2.8-1.6,5.7-1.6,8.7c0,7.5,3.4,14.4,9.3,19l-2.4,3.1c-6.9-5.3-10.9-13.4-10.9-22.2c0-4.4,1.1-8.8,3.1-12.7L45,58l4.3,3.5
			l1.9-21.3l-20,6.7L35,50l-0.6,1.4c-2.3,5.1-3.4,10.5-3.4,16c0,21.9,17.8,39.7,39.7,39.7V111.1z M85.9,100.3L89,65.4l6.1,5
			c1.1-2.8,1.6-5.7,1.6-8.7c0-7.5-3.4-14.4-9.3-19l2.4-3.1c6.9,5.3,10.9,13.4,10.9,22.2c0,4.4-1.1,8.8-3.1,12.7l-1.1,2.2l-4.3-3.5
			l-1.9,21.3l20-6.7l-3.9-3.1l0.6-1.4c2.3-5.1,3.4-10.5,3.4-16c0-21.9-17.8-39.7-39.7-39.7v-4c24.1,0,43.7,19.6,43.7,43.7
			c0,5.5-1.1,11-3.1,16.2l7.1,5.8L85.9,100.3z M72.7,89.2h-4v-6h-2c-3.3,0-6-2.7-6-6v-2h4v2c0,1.1,0.9,2,2,2h7.9c1.1,0,2-0.9,2-2
			v-5.1c0-0.8-0.5-1.6-1.3-1.9l-10.6-2.2c-2.4-0.8-4.1-3.1-4.1-5.7v-5.1c0-3.3,2.7-6,6-6h2v-6h4v6h2c3.3,0,6,2.7,6,6v4h-4v-4
			c0-1.1-0.9-2-2-2h-7.9c-1.1,0-2,0.9-2,2v5.1c0,0.8,0.5,1.6,1.3,1.9l10.6,2.2c2.4,0.8,4.1,3.1,4.1,5.7v5.1c0,3.3-2.7,6-6,6h-2V89.2
			z"/>
	</g>
</g>
</svg>
