<?xml version="1.0" encoding="utf-8"?>
<!-- Generator: Adobe Illustrator 21.0.0, SVG Export Plug-In . SVG Version: 6.00 Build 0)  -->
<svg version="1.1" id="Layer_1" xmlns="http://www.w3.org/2000/svg" xmlns:xlink="http://www.w3.org/1999/xlink" x="0px" y="0px"
	 viewBox="0 0 141.6 128" style="enable-background:new 0 0 141.6 128;" xml:space="preserve">
<style type="text/css">
	.st0{fill:#000080;}
</style>
<g>
	<path class="st0" d="M123.5,119.6H18.1v-4.5h6.7v-11.2c0-1.2,1-2.2,2.2-2.2h13.5c1.2,0,2.2,1,2.2,2.2v11.2h6.7V92.7
		c0-1.2,1-2.2,2.2-2.2h13.5c1.2,0,2.2,1,2.2,2.2v22.4h6.7V72.5c0-1.2,1-2.2,2.2-2.2h13.5c1.2,0,2.2,1,2.2,2.2v42.6h6.7V29.9
		c0-1.2,1-2.2,2.2-2.2h13.5c1.2,0,2.2,1,2.2,2.2v85.2h6.7V119.6z M103.3,115.1h9v-83h-9V115.1z M78.6,115.1h9V74.8h-9V115.1z
		 M54,115.1h9V95h-9V115.1z M29.3,115.1h9v-9h-9V115.1z M38.3,86L38.3,86c-0.6,0-1.2-0.2-1.6-0.7L23.2,71.9c-0.4-0.4-0.7-1-0.7-1.6
		c0-0.6,0.3-1.2,0.7-1.6l34.2-32l-5.1-5.1c-0.6-0.6-0.8-1.6-0.5-2.4c0.3-0.8,1.2-1.4,2.1-1.4c0,0,0,0,0,0l26.9,0
		c1.2,0,2.2,1,2.2,2.2v24.6c0,0.9-0.5,1.7-1.4,2.1c-0.8,0.3-1.8,0.2-2.4-0.5L74.1,51L39.9,85.3C39.4,85.8,38.9,86,38.3,86z M28,70.4
		l10.2,10.2l34.3-34.3c0.8-0.8,2.3-0.8,3.2,0l2.9,2.9v-17l-19.2,0l2.9,2.9c0.4,0.4,0.7,1,0.7,1.6c0,0.6-0.3,1.2-0.7,1.6L28,70.4z"/>
</g>
</svg>
